<svg width="162" height="177" viewBox="0 0 162 177" fill="none" xmlns="http://www.w3.org/2000/svg">
<g filter="url(#filter0_dd_163_106)">
<path d="M70.763 6.01704C73.2757 4.51119 74.5321 3.75826 75.8786 3.48565C76.9263 3.27354 78.0059 3.27354 79.0535 3.48565C80.4 3.75826 81.6564 4.51119 84.1692 6.01705L138.217 38.4067C140.599 39.8344 141.79 40.5482 142.64 41.5452C143.303 42.3215 143.81 43.2172 144.136 44.1842C144.554 45.4262 144.554 46.8148 144.554 49.592V115.225C144.554 118.002 144.554 119.391 144.136 120.633C143.81 121.6 143.303 122.496 142.64 123.272C141.79 124.269 140.599 124.983 138.217 126.411L84.1692 158.8C81.6564 160.306 80.4 161.059 79.0535 161.332C78.0059 161.544 76.9263 161.544 75.8786 161.332C74.5321 161.059 73.2757 160.306 70.763 158.8L16.7154 126.411C14.3332 124.983 13.1421 124.269 12.2917 123.272C11.6296 122.496 11.1221 121.6 10.7966 120.633C10.3785 119.391 10.3785 118.002 10.3785 115.225V49.592C10.3785 46.8148 10.3785 45.4262 10.7966 44.1842C11.1221 43.2172 11.6296 42.3215 12.2917 41.5452C13.1421 40.5482 14.3332 39.8343 16.7154 38.4067L70.763 6.01704Z" fill="#CFCFCF"/>
<path d="M76.1758 4.95605C76.9206 4.80525 77.6857 4.78631 78.4355 4.89941L78.7559 4.95605C79.5312 5.11304 80.2879 5.47571 81.7178 6.30664L83.3984 7.30371L137.445 39.6934C139.763 41.082 140.724 41.677 141.373 42.377L141.499 42.5186C141.97 43.0704 142.344 43.6969 142.607 44.3711L142.714 44.6631C143.035 45.6169 143.054 46.7106 143.054 49.5918V115.226C143.054 117.927 143.037 119.057 142.771 119.974L142.714 120.154C142.482 120.842 142.138 121.485 141.695 122.058L141.499 122.299C141.009 122.873 140.364 123.342 139.03 124.165L137.445 125.124L83.3984 157.514C80.954 158.979 79.9214 159.576 78.9502 159.817L78.7559 159.861C78.0112 160.012 77.2467 160.031 76.4971 159.918L76.1768 159.861H76.1758C75.4005 159.704 74.6436 159.342 73.2139 158.511L71.5342 157.514L17.4863 125.124C15.1689 123.735 14.2078 123.14 13.5586 122.44L13.4326 122.299C12.9619 121.747 12.5877 121.121 12.3242 120.446L12.2178 120.154C11.8968 119.2 11.8789 118.107 11.8789 115.226V49.5918C11.8789 46.8906 11.8945 45.7604 12.1611 44.8438L12.2178 44.6631C12.4492 43.9757 12.7944 43.3323 13.2373 42.7598L13.4326 42.5186C13.9225 41.9442 14.5678 41.4758 15.9023 40.6523L17.4863 39.6934L71.5342 7.30371C73.9789 5.83864 75.0111 5.24146 75.9824 5L76.1758 4.95605Z" stroke="#858585" stroke-width="3"/>
</g>
<path d="M110.556 38.6992L98.842 31.7186L110.744 25.0644L110.556 38.6992Z" fill="white"/>
<path d="M24.6659 87.6883L12.8744 80.8396L24.7012 74.0522L24.6659 87.6883Z" fill="white"/>
<path d="M110.666 139.688L98.8744 132.84L110.701 126.052L110.666 139.688Z" fill="white"/>
<defs>
<filter id="filter0_dd_163_106" x="6.37891" y="0.126172" width="155.375" height="176.564" filterUnits="userSpaceOnUse" color-interpolation-filters="sRGB">
<feFlood flood-opacity="0" result="BackgroundImageFix"/>
<feColorMatrix in="SourceAlpha" type="matrix" values="0 0 0 0 0 0 0 0 0 0 0 0 0 0 0 0 0 0 127 0" result="hardAlpha"/>
<feOffset dx="8" dy="6"/>
<feGaussianBlur stdDeviation="4.6"/>
<feComposite in2="hardAlpha" operator="out"/>
<feColorMatrix type="matrix" values="0 0 0 0 0 0 0 0 0 0 0 0 0 0 0 0 0 0 0.3 0"/>
<feBlend mode="normal" in2="BackgroundImageFix" result="effect1_dropShadow_163_106"/>
<feColorMatrix in="SourceAlpha" type="matrix" values="0 0 0 0 0 0 0 0 0 0 0 0 0 0 0 0 0 0 127 0" result="hardAlpha"/>
<feOffset dy="4"/>
<feGaussianBlur stdDeviation="2"/>
<feComposite in2="hardAlpha" operator="out"/>
<feColorMatrix type="matrix" values="0 0 0 0 0 0 0 0 0 0 0 0 0 0 0 0 0 0 0.25 0"/>
<feBlend mode="normal" in2="effect1_dropShadow_163_106" result="effect2_dropShadow_163_106"/>
<feBlend mode="normal" in="SourceGraphic" in2="effect2_dropShadow_163_106" result="shape"/>
</filter>
</defs>
</svg>
