<svg width="164" height="179" viewBox="0 0 164 179" fill="none" xmlns="http://www.w3.org/2000/svg">
<g filter="url(#filter0_d_171_396)">
<path d="M71.8514 6.01705C74.3641 4.51119 75.6205 3.75826 76.967 3.48565C78.0147 3.27354 79.0943 3.27354 80.142 3.48565C81.4884 3.75826 82.7448 4.51119 85.2576 6.01705L140.153 38.9148C142.535 40.3425 143.726 41.0563 144.577 42.0533C145.239 42.8296 145.746 43.7253 146.072 44.6923C146.49 45.9343 146.49 47.3229 146.49 50.1001V116.75C146.49 119.527 146.49 120.915 146.072 122.157C145.746 123.124 145.239 124.02 144.577 124.796C143.726 125.793 142.535 126.507 140.153 127.935L85.2576 160.833C82.7448 162.339 81.4884 163.091 80.142 163.364C79.0943 163.576 78.0147 163.576 76.967 163.364C75.6205 163.091 74.3642 162.339 71.8514 160.833L16.9559 127.935C14.5737 126.507 13.3826 125.793 12.5322 124.796C11.8701 124.02 11.3627 123.124 11.0371 122.157C10.619 120.915 10.619 119.527 10.619 116.75V50.1001C10.619 47.3229 10.619 45.9343 11.0371 44.6923C11.3627 43.7254 11.8701 42.8296 12.5322 42.0533C13.3826 41.0563 14.5737 40.3425 16.9559 38.9149L71.8514 6.01705Z" fill="#FFDDD1"/>
<path d="M77.165 4.46582C77.9672 4.30341 78.7911 4.28345 79.5986 4.40527L79.9434 4.46582C80.7969 4.63863 81.6209 5.03928 83.0664 5.87988L84.7432 6.875L139.639 39.7725C141.928 41.1446 142.965 41.7783 143.678 42.5469L143.815 42.7021C144.322 43.2965 144.726 43.9711 145.01 44.6973L145.124 45.0117C145.477 46.0616 145.49 47.254 145.49 50.1006V116.75C145.49 119.419 145.479 120.633 145.187 121.64L145.124 121.838C144.875 122.578 144.503 123.271 144.026 123.888L143.815 124.147C143.276 124.779 142.57 125.288 141.221 126.12L139.639 127.077L84.7432 159.975C82.3278 161.422 81.2228 162.071 80.1562 162.336L79.9434 162.384C79.1414 162.546 78.3181 162.567 77.5107 162.445L77.165 162.384C76.3116 162.211 75.4873 161.811 74.042 160.971L72.3652 159.975L17.4697 127.077C15.1803 125.705 14.1446 125.071 13.4316 124.303L13.293 124.147C12.786 123.553 12.3824 122.879 12.0986 122.152L11.9854 121.838C11.632 120.788 11.6191 119.596 11.6191 116.75V50.1006C11.6191 47.4314 11.6301 46.2165 11.9229 45.21L11.9854 45.0117C12.2346 44.2715 12.6051 43.5785 13.082 42.9619L13.293 42.7021C13.8322 42.07 14.5389 41.5618 15.8887 40.7295L17.4697 39.7725L72.3652 6.875C74.7803 5.42768 75.8857 4.77894 76.9521 4.51367L77.165 4.46582Z" stroke="#D18585" stroke-width="2"/>
</g>
<g clip-path="url(#clip0_171_396)">
<path d="M76.4735 38.6729C71.8917 38.6729 67.5879 39.859 63.8484 41.9365C59.5734 44.3109 56.0496 47.8361 53.677 52.1121C53.5703 52.303 53.4706 52.4967 53.3682 52.6918C53.3878 52.6862 53.4103 52.6778 53.4299 52.675C53.6835 52.6235 53.9455 52.6316 54.1955 52.6986C54.4454 52.7655 54.6763 52.8896 54.8701 53.061L54.873 53.0624L54.8786 53.068L54.8758 53.0652C54.9151 53.1003 54.9558 53.1354 54.9909 53.1719C56.3383 54.3837 57.4458 55.8379 58.2559 57.4589C59.3547 59.6594 59.8709 62.1049 59.7551 64.5617C59.8115 63.2799 60.0429 62.0118 60.4429 60.7927L60.471 60.7029C60.5637 60.432 60.6633 60.1639 60.7686 59.9L60.8107 59.7975C61.0409 59.2414 61.3067 58.7008 61.6066 58.179C61.6179 58.1565 61.6319 58.1355 61.6445 58.113C62.805 56.117 64.4351 54.4344 66.3933 53.2112C68.0752 52.163 69.9589 51.4806 71.922 51.2085C73.885 50.9363 75.8833 51.0804 77.7869 51.6315C79.6906 52.1826 81.4569 53.1283 82.9709 54.407C84.485 55.6858 85.7128 57.2689 86.5747 59.0535C86.5859 59.0774 89.4383 63.7742 89.4383 71.9411C89.4383 79.0215 87.2934 84.7571 83.6619 89.7642C80.7366 93.8001 76.8657 97.0565 72.3886 99.2478C72.1261 100.063 71.8131 100.856 71.458 101.624C68.2996 108.421 61.5757 113.227 53.6882 113.633C60.4244 118.158 68.3584 120.569 76.4735 120.556C99.0847 120.556 117.414 102.225 117.414 79.6153C117.414 57.0027 99.0847 38.6729 76.4735 38.6729Z" fill="#FF5C35"/>
<path d="M86.5744 59.0534C85.4593 56.7437 83.7361 54.7814 81.5898 53.3772C79.4435 51.973 76.9553 51.18 74.3923 51.0833C71.8293 50.9866 69.2884 51.5899 67.0424 52.8284C64.7965 54.0669 62.9303 55.8938 61.6443 58.1129C61.3288 58.6548 61.0507 59.2176 60.8119 59.7974L60.7698 59.8999C60.6631 60.1647 60.5639 60.4324 60.4722 60.7028L60.4427 60.7926C60.0404 62.0111 59.8094 63.2796 59.7563 64.5616C59.6396 67.0784 60.202 69.5802 61.3846 71.8049C62.3351 73.5869 63.6556 75.1453 65.2575 76.3754L65.2435 76.3894C67.9951 78.4997 70.1773 81.2628 71.5925 84.4286C72.4608 86.378 73.0224 88.4501 73.2573 90.5713C73.5849 93.4924 73.2882 96.4498 72.387 99.2477C76.8639 97.0556 80.7352 93.7994 83.6617 89.7641C87.2932 84.757 89.438 79.0214 89.438 71.941C89.438 63.7742 86.5857 59.0773 86.5744 59.0534Z" fill="white"/>
<path d="M72.2637 70.8712C72.9914 70.8827 73.7141 70.7492 74.3897 70.4786C75.0653 70.208 75.6803 69.8057 76.1989 69.2951C76.7175 68.7845 77.1293 68.1757 77.4103 67.5044C77.6913 66.8331 77.836 66.1125 77.8358 65.3847C77.8356 64.657 77.6906 63.9365 77.4092 63.2653C77.1278 62.5941 76.7157 61.9856 76.1969 61.4752C75.678 60.9649 75.0628 60.5629 74.3871 60.2926C73.7113 60.0224 72.9886 59.8893 72.2609 59.9011C70.8213 59.9245 69.4487 60.5129 68.4391 61.5393C67.4295 62.5657 66.8639 63.9478 66.8643 65.3875C66.8646 66.8273 67.431 68.2091 68.4411 69.235C69.4512 70.2609 70.8241 70.8486 72.2637 70.8712Z" fill="#060000"/>
<path d="M69.6411 66.7853C69.8603 66.7851 70.0773 66.7418 70.2797 66.6577C70.4822 66.5737 70.6661 66.4506 70.8209 66.2955C70.9758 66.1404 71.0985 65.9563 71.1823 65.7537C71.266 65.5511 71.3089 65.3341 71.3088 65.1149C71.3086 64.8957 71.2652 64.6787 71.1812 64.4763C71.0971 64.2739 70.974 64.09 70.8189 63.9351C70.6638 63.7803 70.4797 63.6575 70.2771 63.5738C70.0746 63.4901 69.8575 63.4471 69.6383 63.4473C69.1957 63.4476 68.7713 63.6238 68.4586 63.9371C68.1458 64.2504 67.9703 64.675 67.9707 65.1177C67.9711 65.5604 68.1473 65.9847 68.4605 66.2975C68.7738 66.6102 69.1985 66.7857 69.6411 66.7853Z" fill="white"/>
<path d="M65.2419 76.3878H65.2433L65.2574 76.3752C63.6563 75.1446 62.3364 73.5864 61.3859 71.8047C60.4989 72.1308 59.6433 72.5368 58.8297 73.0175C59.641 74.7617 60.0602 76.6625 60.058 78.5861C60.0596 80.4401 59.6697 82.2736 58.9139 83.9666C58.2028 85.5589 57.1844 86.9952 55.917 88.1932C58.9368 89.125 62.1663 89.1319 65.19 88.2128C67.5951 87.4792 69.7901 86.1817 71.5924 84.4284C70.1771 81.2618 67.9944 78.4983 65.2419 76.3878Z" fill="#F5A800"/>
<path d="M59.7395 65.192C59.7395 64.98 59.7465 64.7709 59.7563 64.5617C59.7563 64.5617 59.7704 64.1224 59.7704 63.902C59.7727 61.878 59.3482 59.8762 58.5246 58.0273C57.7011 56.1784 56.4969 54.524 54.9907 53.1719C54.9556 53.134 54.9149 53.1003 54.8756 53.0666H54.8784C54.684 52.8932 54.4519 52.7674 54.2004 52.6992C53.949 52.631 53.6851 52.6222 53.4297 52.6736C53.4087 52.6792 53.389 52.6876 53.368 52.6918L53.3581 52.6947C49.18 53.9399 45.515 56.4997 42.9077 59.9939C40.3004 63.4881 38.8899 67.7302 38.8857 72.0899C38.8857 73.7084 39.0823 75.2806 39.4402 76.7896C39.4697 76.9103 39.4936 77.031 39.5244 77.1503C40.3255 80.2347 41.8423 83.0868 43.9516 85.4755C46.061 87.8641 48.7037 89.722 51.6653 90.8984C51.1873 89.2171 50.9919 87.4682 51.0869 85.7229C51.2424 82.8254 52.1998 80.0281 53.8523 77.643C55.7025 74.968 58.3329 72.9288 61.3846 71.8035C60.3018 69.7682 59.7368 67.4975 59.7395 65.192Z" fill="#FFD100"/>
</g>
<defs>
<filter id="filter0_d_171_396" x="9.41914" y="0.126172" width="154.271" height="178.597" filterUnits="userSpaceOnUse" color-interpolation-filters="sRGB">
<feFlood flood-opacity="0" result="BackgroundImageFix"/>
<feColorMatrix in="SourceAlpha" type="matrix" values="0 0 0 0 0 0 0 0 0 0 0 0 0 0 0 0 0 0 127 0" result="hardAlpha"/>
<feOffset dx="8" dy="6"/>
<feGaussianBlur stdDeviation="4.6"/>
<feComposite in2="hardAlpha" operator="out"/>
<feColorMatrix type="matrix" values="0 0 0 0 0 0 0 0 0 0 0 0 0 0 0 0 0 0 0.3 0"/>
<feBlend mode="normal" in2="BackgroundImageFix" result="effect1_dropShadow_171_396"/>
<feBlend mode="normal" in="SourceGraphic" in2="effect1_dropShadow_171_396" result="shape"/>
</filter>
<clipPath id="clip0_171_396">
<rect width="82.8197" height="82.8197" fill="white" transform="translate(36.7803 38.6729)"/>
</clipPath>
</defs>
</svg>
